<?xml version="1.0" encoding="UTF-8"?>
<svg width="471px" height="159px" viewBox="0 0 471 159" version="1.1" xmlns="http://www.w3.org/2000/svg" xmlns:xlink="http://www.w3.org/1999/xlink">
    <!-- Generator: Sketch 41.1 (35376) - http://www.bohemiancoding.com/sketch -->
    <title>esri-logo</title>
    <desc>Created with Sketch.</desc>
    <defs>
        <path d="M0.204248408,69.7730572 C0.204248408,108.114582 31.3224119,139.183368 69.6822081,139.183368 C108.058755,139.183368 139.172596,108.114582 139.172596,69.7730572 C139.172596,31.4439478 108.058755,0.363825871 69.6822081,0.363825871 C31.3224119,0.363825871 0.204248408,31.4439478 0.204248408,69.7730572" id="path-1"></path>
        <radialGradient cx="34.0192249%" cy="40.718953%" fx="34.0192249%" fy="40.718953%" r="3.62350398%" id="radialGradient-3">
            <stop stop-color="#A9E0F6" offset="0%"></stop>
            <stop stop-color="#147BC1" offset="100%"></stop>
        </radialGradient>
        <path d="M40.3552707,3.28414925 C34.9978025,3.51086567 29.8656561,4.21800498 24.7491794,4.98074378 C10.2556476,17.275791 0.89047983,35.3877338 0.255580679,55.7155597 C4.35459766,60.0291095 9.76123673,69.773597 16.0043217,75.4118184 C16.8294204,75.0398955 17.7247633,74.7278905 18.6817049,74.4353184 C15.6163577,70.8818085 11.3390287,66.171505 10.6933227,64.0090622 C7.54098089,53.384699 11.1882739,43.4442637 19.0799352,42.6604726 C26.1481189,41.9490149 32.211811,31.4455672 37.1991465,24.5469104 C47.4558747,10.3776741 63.2100191,12.7463209 62.4222038,5.64955721 C61.5171348,1.50172637 59.0591295,0.236972637 55.9305626,0.236972637 C51.2274459,0.235893035 45.0221847,3.10385572 40.3552707,3.28414925" id="path-4"></path>
        <radialGradient cx="70.5969069%" cy="60.506252%" fx="70.5969069%" fy="60.506252%" r="8.00408573%" id="radialGradient-6">
            <stop stop-color="#A4CD39" offset="0%"></stop>
            <stop stop-color="#0F9F49" offset="96.1%"></stop>
            <stop stop-color="#0F9F49" offset="100%"></stop>
        </radialGradient>
        <path d="M10.8473195,1.79537811 C9.8233758,2.09064925 8.82536837,2.36054975 7.87437049,2.64178607 C7.01793206,2.87174129 6.34845117,3.21127612 5.19698726,3.61828607 C2.64009979,4.74916915 0.79970276,6.49542537 0.367430998,10.2076368 C-0.411198514,16.9573085 6.00857749,22.2441194 11.4200796,23.7992861 C18.2759098,25.7614627 18.8589363,23.4619104 22.4505743,28.3276766 C24.9690977,31.7224851 25.4597261,38.0262811 26.7414119,42.1719527 C27.4638461,44.4914776 28.4288928,46.787791 29.5965669,49.0511766 C34.499069,51.328597 39.7057824,53.0683756 45.1502452,54.1533756 C46.4973121,46.1605423 45.8915913,35.365602 47.6768737,30.7033408 C51.350103,21.1537214 53.4169023,16.9497512 48.4625276,7.09406468 C37.551448,4.00910199 34.2337622,3.03368159 23.243793,0.780012438 C20.9954395,0.322800995 19.6013631,0.0917661692 18.3439926,0.0917661692 C16.3895839,0.0912263682 14.7788312,0.646141791 10.8473195,1.79537811" id="path-7"></path>
        <radialGradient cx="92.0450901%" cy="-55.6949669%" fx="92.0450901%" fy="-55.6949669%" r="9.3696045%" id="radialGradient-9">
            <stop stop-color="#A4CD39" offset="0%"></stop>
            <stop stop-color="#0F9F49" offset="96.1%"></stop>
            <stop stop-color="#0F9F49" offset="100%"></stop>
        </radialGradient>
        <path d="M21.1434926,12.3134005 C17.9225276,16.9065672 6.63158917,18.1653831 3.01347452,23.3339776 C0.191280255,27.366291 3.10371125,35.2932687 0.647867304,39.8664627 C-0.484144374,41.9754652 0.0383641189,48.0941095 1.4221741,50.0940721 C5.76758599,56.4108234 12.9886858,52.9010373 18.4228822,55.1698209 C25.0598747,57.9346816 25.8147293,65.6284652 31.3186295,71.2445547 C36.8230701,76.8752189 24.292052,85.5444229 34.5271667,106.010978 C35.6197335,108.212286 36.8954756,109.819813 38.259293,110.925866 C45.168031,106.627065 51.2695463,101.15243 56.2871868,94.7501891 C57.8385021,84.413 54.3430446,81.1083383 58.7160138,71.6445473 C61.4063652,65.8098383 66.0203259,55.7069229 71.0017176,48.8552289 C70.1625701,29.6901343 61.5463132,12.5417363 48.2209958,0.4885199 C46.9717304,0.836151741 45.3793493,0.896069652 43.2082643,0.505253731 C41.3462537,0.161400498 39.6668779,0.0107960199 38.1442006,0.0107960199 C27.8701815,0.0118756219 24.8075361,7.07895025 21.1434926,12.3134005" id="path-10"></path>
        <radialGradient cx="-2.73502925%" cy="2.76896239%" fx="-2.73502925%" fy="2.76896239%" r="7.04470211%" id="radialGradient-12">
            <stop stop-color="#A4CD39" offset="0%"></stop>
            <stop stop-color="#0F9F49" offset="96.1%"></stop>
            <stop stop-color="#0F9F49" offset="100%"></stop>
        </radialGradient>
    </defs>
    <g id="Page-1" stroke="none" stroke-width="1" fill="none" fill-rule="evenodd">
        <g id="esri-logo" transform="translate(-38.000000, -21.000000)">
            <g id="Group">
                <path d="M472.799942,21.2411692 C481.3238,21.2411692 487.90892,27.4100149 487.90892,35.5642488 C487.90892,43.7292786 481.3238,49.9029826 472.799942,49.9029826 C464.276623,49.9029826 458.086492,43.1247015 458.086492,35.5642488 C458.085951,28.0075746 464.276083,21.2411692 472.799942,21.2411692 L472.799942,21.2411692 Z M461.785657,66.4500423 L484.211916,66.4500423 L484.211916,156.088316 L461.785657,156.088316 L461.785657,66.4500423 Z M280.546535,130.893644 C275.263634,136.447117 268.48129,140.40008 258.759498,140.40008 C246.225778,140.40008 236.134934,132.357585 234.631169,119.112488 L303.054926,119.112488 L303.054926,112.950119 C303.054926,81.7523209 286.047734,64.2120274 260.981375,64.2120274 C233.887121,64.2120274 212.208692,83.0634975 212.208692,111.264861 C212.208692,139.461366 233.887121,158.32741 260.981375,158.32741 C273.341645,158.32741 284.981643,154.489425 294.69479,145.033192 L280.546535,130.893644 L280.546535,130.893644 Z M257.811202,81.0046965 C271.836799,81.0046965 280.431983,89.2301841 280.628126,102.296067 L234.631169,102.296067 C236.320271,89.4077786 244.549104,81.0046965 257.811202,81.0046965 L257.811202,81.0046965 Z M334.343296,91.6587488 C334.343296,84.933908 341.4439,82.1301816 347.437889,82.1301816 C355.046412,82.1301816 360.648654,85.2831592 364.942734,91.2058557 L379.202298,76.9702239 C371.815314,67.7552811 359.57716,64.2087886 347.991737,64.2087886 C329.857936,64.2087886 311.90623,73.1673259 311.90623,93.1556169 C311.90623,127.335276 360.317966,112.75957 360.317966,131.247214 C360.317966,138.341818 351.9092,141.514769 345.368928,141.514769 C335.862731,141.514769 329.885494,136.877338 324.108182,130.549791 L309.620593,145.014299 C318.711269,154.869445 330.476625,158.32795 344.064007,158.32795 C362.374499,158.32795 382.763137,150.860343 382.763137,129.568433 C382.763137,94.6395299 334.343296,107.71297 334.343296,91.6587488 L334.343296,91.6587488 Z M450.410426,65.4956741 C447.817335,64.7615448 445.21668,64.2087886 442.441496,64.2087886 C430.655606,64.2087886 420.740373,70.3662985 415.880557,80.6279154 L415.517449,80.6279154 L415.517449,66.4473433 L393.09119,66.4473433 L393.09119,156.087776 L415.517449,156.087776 L415.517449,108.085433 C415.517449,103.232622 418.497963,85.4904428 439.63335,85.4904428 C442.885115,85.4904428 446.125532,86.1349652 449.528591,86.9441269 L450.410426,65.4956741 L450.410426,65.4956741 Z M501.6195,66.0014677 C505.616933,66.0014677 508.887609,69.2694229 508.887609,73.2655697 C508.887609,77.2622562 505.616933,80.5167164 501.6195,80.5167164 C497.616663,80.5167164 494.361117,77.262796 494.361117,73.2655697 C494.361117,69.2688831 497.616663,66.0014677 501.6195,66.0014677 L501.6195,66.0014677 Z M501.6195,79.2346891 C504.925298,79.2346891 507.599439,76.5605149 507.599439,73.2650299 C507.599439,69.9646866 504.925298,67.2937512 501.6195,67.2937512 C498.319105,67.2937512 495.649287,69.9646866 495.649287,73.2650299 C495.649287,76.5605149 498.318565,79.2346891 501.6195,79.2346891 L501.6195,79.2346891 Z M498.824863,69.0723955 L502.026376,69.0723955 C504.028334,69.0723955 504.953396,69.9646866 504.953396,71.5722139 C504.953396,73.0091642 504.107764,73.7082065 502.977374,73.8458557 L505.130627,77.3588806 L503.533924,77.3588806 L501.46064,73.9602935 L500.356186,73.9602935 L500.356186,77.3588806 L498.824863,77.3588806 L498.824863,69.0723955 Z M500.356186,72.6793458 L501.46064,72.6793458 C502.395428,72.6793458 503.437203,72.6232065 503.437203,71.5015 C503.437203,70.3884303 502.395428,70.3285124 501.46064,70.3533433 L500.356186,70.3533433 L500.356186,72.6793458 Z" id="Shape" fill="#FFFFFF"></path>
                <g id="Clipped" transform="translate(38.364119, 39.945274)">
                    <mask id="mask-2" fill="white">
                        <use xlink:href="#path-1"></use>
                    </mask>
                    <g id="s"></g>
                    <polygon id="Shape" fill="url(#radialGradient-3)" mask="url(#mask-2)" points="0.204248408 0.363825871 139.169894 0.363825871 139.169894 139.183368 0.204248408 139.183368"></polygon>
                </g>
                <g id="Clipped" transform="translate(38.364119, 51.820896)">
                    <mask id="mask-5" fill="white">
                        <use xlink:href="#path-4"></use>
                    </mask>
                    <g id="v"></g>
                    <polygon id="Shape" fill="url(#radialGradient-6)" mask="url(#mask-5)" points="0.258822718 0.235893035 63.2100191 0.235893035 63.2100191 75.4091194 0.258822718 75.4091194"></polygon>
                </g>
                <g id="Clipped" transform="translate(49.170913, 123.614428)">
                    <mask id="mask-8" fill="white">
                        <use xlink:href="#path-7"></use>
                    </mask>
                    <g id="y"></g>
                    <polygon id="Shape" fill="url(#radialGradient-9)" mask="url(#mask-8)" points="-0.411198514 0.0912263682 53.4174427 0.0912263682 53.4174427 54.1533756 -0.411198514 54.1533756"></polygon>
                </g>
                <g id="Clipped" transform="translate(106.446921, 57.758706)">
                    <mask id="mask-11" fill="white">
                        <use xlink:href="#path-10"></use>
                    </mask>
                    <g id="B"></g>
                    <polygon id="Shape" fill="url(#radialGradient-12)" mask="url(#mask-11)" points="-0.484144374 0.0118756219 71.0017176 0.0118756219 71.0017176 110.926405 -0.484144374 110.926405"></polygon>
                </g>
            </g>
            <rect id="Rectangle" fill="#147BC1" x="79" y="87" width="14" height="17"></rect>
        </g>
    </g>
</svg>