<?xml version="1.0" encoding="UTF-8"?>
<svg width="91px" height="31px" viewBox="0 0 91 31" version="1.1" xmlns="http://www.w3.org/2000/svg" xmlns:xlink="http://www.w3.org/1999/xlink">
    <!-- Generator: Sketch 41.1 (35376) - http://www.bohemiancoding.com/sketch -->
    <title>esri-logo</title>
    <desc>Created with Sketch.</desc>
    <defs>
        <polygon id="path-1" points="0.0442781316 0.0621119403 30.7728896 0.0621119403 30.7728896 30.4978806 0.0442781316 30.4978806"></polygon>
        <path d="M0.0496326964,14.8895274 C0.0496326964,23.0667836 6.74180892,29.694709 14.9948408,29.694709 C23.2503439,29.694709 29.943035,23.0667836 29.943035,14.8895274 C29.943035,6.71359701 23.2503439,0.0859776119 14.9948408,0.0859776119 C6.74191189,0.0859776119 0.0496326964,6.71359701 0.0496326964,14.8895274" id="path-3"></path>
        <polygon id="path-5" points="0.0496326964 0.0859776119 29.9425202 0.0859776119 29.9425202 29.6948109 0.0496326964 29.6948109"></polygon>
        <polygon id="path-7" points="0.0435573248 0.0621119403 30.7724777 0.0621119403 30.7724777 30.4978806 0.0435573248 30.4978806"></polygon>
        <filter x="-50%" y="-50%" width="200%" height="200%" filterUnits="objectBoundingBox" id="filter-9">
            <feOffset dx="0" dy="0" in="SourceAlpha" result="shadowOffsetOuter1"></feOffset>
            <feGaussianBlur stdDeviation="0.5" in="shadowOffsetOuter1" result="shadowBlurOuter1"></feGaussianBlur>
            <feColorMatrix values="0 0 0 0 0   0 0 0 0 0   0 0 0 0 0  0 0 0 0.5 0" type="matrix" in="shadowBlurOuter1" result="shadowMatrixOuter1"></feColorMatrix>
            <feMerge>
                <feMergeNode in="shadowMatrixOuter1"></feMergeNode>
                <feMergeNode in="SourceGraphic"></feMergeNode>
            </feMerge>
        </filter>
        <path d="M0.0389235669,13.1829279 C0.0389235669,20.4271791 5.96910403,26.2973184 13.2793206,26.2973184 C20.5927293,26.2973184 26.522086,20.4271791 26.522086,13.1829279 C26.522086,5.94102239 20.5927293,0.0687412935 13.2793206,0.0687412935 C5.96910403,0.0687412935 0.0389235669,5.94102239 0.0389235669,13.1829279" id="path-10"></path>
        <radialGradient cx="34.0192249%" cy="40.718953%" fx="34.0192249%" fy="40.718953%" r="3.62350398%" id="radialGradient-12">
            <stop stop-color="#A9E0F6" offset="0%"></stop>
            <stop stop-color="#147BC1" offset="100%"></stop>
        </radialGradient>
        <path d="M7.69049363,0.620507463 C6.66952229,0.663343284 5.69149045,0.796950249 4.7164448,0.941062189 C1.95441614,3.26408955 0.169698514,6.68616169 0.0487059448,10.526903 C0.829854565,11.3419055 1.86019639,13.1830299 3.04993949,14.2483159 C3.20717834,14.1780448 3.37780361,14.1190945 3.56016773,14.0638159 C2.97600531,13.3924154 2.1608758,12.5024502 2.03782378,12.0938781 C1.4370828,10.08651 2.1321465,8.20836318 3.63605839,8.06027363 C4.98304034,7.92585075 6.1385966,5.94132836 7.08903185,4.63789552 C9.04365393,1.96075871 12.0459172,2.40829104 11.8957834,1.06742786 C11.7233047,0.283736318 11.2548832,0.0447736318 10.658673,0.0447736318 C9.76240127,0.0445696517 8.57986624,0.586442786 7.69049363,0.620507463" id="path-13"></path>
        <radialGradient cx="70.5969069%" cy="60.506252%" fx="70.5969069%" fy="60.506252%" r="8.00408573%" id="radialGradient-15">
            <stop stop-color="#A4CD39" offset="0%"></stop>
            <stop stop-color="#0F9F49" offset="96.1%"></stop>
            <stop stop-color="#0F9F49" offset="100%"></stop>
        </radialGradient>
        <path d="M2.06717091,0.339218905 C1.87203822,0.395007463 1.6818482,0.446002488 1.50061677,0.499139303 C1.33740552,0.542587065 1.20982272,0.606738806 0.990388535,0.683639303 C0.503123142,0.897308458 0.152399151,1.22724627 0.0700212314,1.92863184 C-0.0783619958,3.20391542 1.14505308,4.20280597 2.17632166,4.4966393 C3.48283546,4.86737313 3.59394268,4.43289552 4.27840021,5.35223383 C4.75835456,5.99364925 4.8518535,7.18468905 5.09610403,7.96797264 C5.23377813,8.40622388 5.41768684,8.84008955 5.64021019,9.26773383 C6.57447877,9.69802985 7.56672081,10.0267438 8.6042707,10.2317438 C8.86098089,8.72157711 8.74554883,6.6819801 9.08576964,5.80109204 C9.78577601,3.99678607 10.1796454,3.20248756 9.23549151,1.34035323 C7.15616985,0.7574801 6.52391932,0.57318408 4.42956369,0.147375622 C4.00109554,0.0609900498 3.73542675,0.0173383085 3.49580998,0.0173383085 C3.12335881,0.0172363184 2.81639809,0.12208209 2.06717091,0.339218905" id="path-16"></path>
        <radialGradient cx="92.0450901%" cy="-55.6949669%" fx="92.0450901%" fy="-55.6949669%" r="9.3696045%" id="radialGradient-18">
            <stop stop-color="#A4CD39" offset="0%"></stop>
            <stop stop-color="#0F9F49" offset="96.1%"></stop>
            <stop stop-color="#0F9F49" offset="100%"></stop>
        </radialGradient>
        <path d="M4.02930998,2.32649502 C3.41549151,3.19432836 1.26378025,3.43216915 0.57427707,4.40872388 C0.0364522293,5.17058955 0.591473461,6.66831343 0.123463907,7.53237313 C-0.0922632696,7.93084826 0.00731104034,9.08690547 0.271023355,9.46477861 C1.09912739,10.6582662 2.47525053,9.99512687 3.51084395,10.423791 C4.77565393,10.9461841 4.91950637,12.3998483 5.96838323,13.4609527 C7.01736306,14.5248109 4.62933015,16.1627711 6.57983333,20.0297239 C6.78804352,20.4456393 7.03116136,20.7493657 7.29106369,20.9583433 C8.60766013,20.1461274 9.77042435,19.1117494 10.7266348,17.9021095 C11.0222686,15.949 10.3561401,15.3246169 11.1894958,13.5365274 C11.7021953,12.4341169 12.5814766,10.5252711 13.5307792,9.23071144 C13.3708631,5.60965672 11.7288652,2.36963682 9.18946285,0.092300995 C8.95139066,0.157982587 8.647931,0.169303483 8.2341879,0.0954626866 C7.87934501,0.0304950249 7.55930679,0.002039801 7.26913057,0.002039801 C5.31121338,0.00224378109 4.72756582,1.33749751 4.02930998,2.32649502" id="path-19"></path>
        <radialGradient cx="-2.73502925%" cy="2.76896239%" fx="-2.73502925%" fy="2.76896239%" r="7.04470211%" id="radialGradient-21">
            <stop stop-color="#A4CD39" offset="0%"></stop>
            <stop stop-color="#0F9F49" offset="96.1%"></stop>
            <stop stop-color="#0F9F49" offset="100%"></stop>
        </radialGradient>
    </defs>
    <g id="Page-1" stroke="none" stroke-width="1" fill="none" fill-rule="evenodd">
        <g id="Artboard" transform="translate(-104.000000, -31.000000)">
            <g id="esri-logo" transform="translate(98.000000, 27.000000)">
                <g id="Group">
                    <g id="Clipped"></g>
                    <g id="Clipped" transform="translate(5.045648, 5.303483)">
                        <mask id="mask-2" fill="white">
                            <use xlink:href="#path-1"></use>
                        </mask>
                        <g id="Shape"></g>
                        <g mask="url(#mask-2)">
                            <g transform="translate(0.411890, 0.509950)">
                                <mask id="mask-4" fill="white">
                                    <use xlink:href="#path-3"></use>
                                </mask>
                                <g id="k" stroke="none" fill="none"></g>
                                <mask id="mask-6" fill="white">
                                    <use xlink:href="#path-5"></use>
                                </mask>
                                <g id="Shape" stroke="none" fill="none"></g>
                            </g>
                        </g>
                        <g mask="url(#mask-2)">
                            <mask id="mask-8" fill="white">
                                <use xlink:href="#path-7"></use>
                            </mask>
                            <g id="o"></g>
                        </g>
                    </g>
                    <path d="M90.1013641,4.01330846 C91.7257537,4.01330846 92.9806783,5.17885075 92.9806783,6.71951244 C92.9806783,8.26221393 91.7257537,9.42867413 90.1013641,9.42867413 C88.4770775,9.42867413 87.2974257,8.14798507 87.2974257,6.71951244 C87.2973227,5.29175373 88.4769745,4.01330846 90.1013641,4.01330846 L90.1013641,4.01330846 Z M88.0023747,12.5550771 L92.2761412,12.5550771 L92.2761412,29.4913408 L88.0023747,29.4913408 L88.0023747,12.5550771 Z M53.4636815,24.7310572 C52.4569204,25.7803308 51.1644108,26.527204 49.3117314,26.527204 C46.9231837,26.527204 45.0001741,25.0076542 44.7136019,22.5051244 L57.7530998,22.5051244 L57.7530998,21.340806 C57.7530998,15.446291 54.5120435,12.1322264 49.7351539,12.1322264 C44.5718089,12.1322264 40.4405563,15.6940249 40.4405563,21.022393 C40.4405563,26.3498433 44.5718089,29.9143955 49.7351539,29.9143955 C52.0906476,29.9143955 54.308879,29.1892463 56.1599108,27.4025846 L53.4636815,24.7310572 L53.4636815,24.7310572 Z M49.1310149,15.3050348 C51.8038694,15.3050348 53.4418514,16.8591592 53.4792304,19.3278284 L44.7136019,19.3278284 C45.0354936,16.8927139 46.6036603,15.3050348 49.1310149,15.3050348 L49.1310149,15.3050348 Z M63.7157166,17.3180124 C63.7157166,16.0474204 65.0688769,15.5176841 66.2111497,15.5176841 C67.661104,15.5176841 68.7287219,16.113408 69.5470435,17.2324428 L72.2644851,14.5427612 C70.8567495,12.8016891 68.5245276,12.1316144 66.3166964,12.1316144 C62.8609427,12.1316144 59.4398907,13.8242413 59.4398907,17.6008308 C59.4398907,24.0587388 68.6657028,21.3048035 68.6657028,24.7978607 C68.6657028,26.1383159 67.0632463,26.7378134 65.8168684,26.7378134 C64.0052749,26.7378134 62.8661943,25.8616169 61.7652134,24.6660896 L59.0043174,27.3990149 C60.7367251,29.2610473 62.9788461,29.9144975 65.56819,29.9144975 C69.0576157,29.9144975 72.9430732,28.5035672 72.9430732,24.4806716 C72.9430732,17.8812015 63.7157166,20.3512985 63.7157166,17.3180124 L63.7157166,17.3180124 Z M85.8345998,12.3747587 C85.3404352,12.2360522 84.8448291,12.1316144 84.3159628,12.1316144 C82.0699289,12.1316144 80.1803854,13.2950149 79.2542516,15.2338458 L79.1850541,15.2338458 L79.1850541,12.5545672 L74.9112877,12.5545672 L74.9112877,29.4912388 L79.1850541,29.4912388 L79.1850541,20.4216716 C79.1850541,19.5047811 79.7530499,16.1525721 83.7808153,16.1525721 C84.4005032,16.1525721 85.0180287,16.2743483 85.6665488,16.4272313 L85.8345998,12.3747587 L85.8345998,12.3747587 Z M95.5935,12.4703234 C96.3552898,12.4703234 96.9785817,13.0877711 96.9785817,13.8428035 C96.9785817,14.5979378 96.3552898,15.2128358 95.5935,15.2128358 C94.8306805,15.2128358 94.2102718,14.5980398 94.2102718,13.8428035 C94.2102718,13.0876692 94.8306805,12.4703234 95.5935,12.4703234 L95.5935,12.4703234 Z M95.5935,14.9706095 C96.2234851,14.9706095 96.7330955,14.4653507 96.7330955,13.8427015 C96.7330955,13.2191343 96.2234851,12.7144876 95.5935,12.7144876 C94.9645446,12.7144876 94.455758,13.2191343 94.455758,13.8427015 C94.455758,14.4653507 94.9644416,14.9706095 95.5935,14.9706095 L95.5935,14.9706095 Z M95.0609268,13.0505448 L95.6710382,13.0505448 C96.052551,13.0505448 96.2288397,13.2191343 96.2288397,13.5228607 C96.2288397,13.7943582 96.0676879,13.9264353 95.8522696,13.9524428 L96.2626146,14.616194 L95.9583312,14.616194 L95.5632261,13.9740647 L95.3527505,13.9740647 L95.3527505,14.616194 L95.0609268,14.616194 L95.0609268,13.0505448 Z M95.3527505,13.7320423 L95.5632261,13.7320423 C95.7413684,13.7320423 95.9398992,13.7214353 95.9398992,13.5095 C95.9398992,13.2991965 95.7413684,13.2878756 95.5632261,13.2925672 L95.3527505,13.2925672 L95.3527505,13.7320423 Z" id="Shape" fill="#FFFFFF"></path>
                    <g id="Clipped" filter="url(#filter-9)" transform="translate(7.311040, 7.547264)">
                        <mask id="mask-11" fill="white">
                            <use xlink:href="#path-10"></use>
                        </mask>
                        <g id="s"></g>
                        <polygon id="Shape" fill="url(#radialGradient-12)" mask="url(#mask-11)" points="0.0389235669 0.0687412935 26.5215711 0.0687412935 26.5215711 26.2973184 0.0389235669 26.2973184"></polygon>
                    </g>
                    <g id="Clipped" transform="translate(7.311040, 9.791045)">
                        <mask id="mask-14" fill="white">
                            <use xlink:href="#path-13"></use>
                        </mask>
                        <g id="v"></g>
                        <polygon id="Shape" fill="url(#radialGradient-15)" mask="url(#mask-14)" points="0.0493237792 0.0445696517 12.0459172 0.0445696517 12.0459172 14.247806 0.0493237792 14.247806"></polygon>
                    </g>
                    <g id="Clipped" transform="translate(9.370488, 23.355721)">
                        <mask id="mask-17" fill="white">
                            <use xlink:href="#path-16"></use>
                        </mask>
                        <g id="y"></g>
                        <polygon id="Shape" fill="url(#radialGradient-18)" mask="url(#mask-17)" points="-0.0783619958 0.0172363184 10.1797484 0.0172363184 10.1797484 10.2317438 -0.0783619958 10.2317438"></polygon>
                    </g>
                    <g id="Clipped" transform="translate(20.285563, 10.912935)">
                        <mask id="mask-20" fill="white">
                            <use xlink:href="#path-19"></use>
                        </mask>
                        <g id="B"></g>
                        <polygon id="Shape" fill="url(#radialGradient-21)" mask="url(#mask-20)" points="-0.0922632696 0.00224378109 13.5307792 0.00224378109 13.5307792 20.9584453 -0.0922632696 20.9584453"></polygon>
                    </g>
                </g>
                <rect id="Rectangle-3" fill="#147BC1" x="14" y="17" width="4" height="4"></rect>
            </g>
        </g>
    </g>
</svg>