<?xml version="1.0" encoding="UTF-8"?>
<svg width="66px" height="65px" viewBox="0 0 66 65" version="1.1" xmlns="http://www.w3.org/2000/svg" xmlns:xlink="http://www.w3.org/1999/xlink">
    <!-- Generator: Sketch 41.1 (35376) - http://www.bohemiancoding.com/sketch -->
    <title>Explorer-SQ</title>
    <desc>Created with Sketch.</desc>
    <defs></defs>
    <g id="Page-1" stroke="none" stroke-width="1" fill="none" fill-rule="evenodd">
        <g id="Artboard" transform="translate(-554.000000, -380.000000)">
            <g id="Group-13" transform="translate(350.000000, 277.000000)">
                <g id="Group-11" transform="translate(0.000000, 103.000000)">
                    <g id="Group-9" transform="translate(204.000000, 0.000000)">
                        <g id="Explorer-SQ" transform="translate(0.500000, 0.000000)">
                            <g id="Page-1">
                                <g>
                                    <g id="Explorer-SQ">
                                        <g id="Group">
                                            <rect id="Rectangle" fill="#67BA4B" x="0" y="0" width="65" height="65" rx="8"></rect>
                                            <path d="M32.5,8.5 C19.245166,8.5 8.5,19.245166 8.5,32.5 C8.5,45.754834 19.245166,56.5 32.5,56.5 C45.754834,56.5 56.5,45.754834 56.5,32.5 C56.5,26.1348042 53.9714358,20.0303103 49.4705627,15.5294373 C44.9696897,11.0285642 38.8651958,8.5 32.5,8.5 L32.5,8.5 Z M48.79,41.23 C44.5922289,48.7132194 35.870409,52.417371 27.5705861,50.241872 C19.2707633,48.0663729 13.4873274,40.560192 13.5,31.98 C13.5028508,30.0904882 13.7928278,28.2123814 14.36,26.41 C16.2111603,27.9636153 18.3778148,29.0964173 20.71,29.73 C22.2104217,30.169139 23.7666565,30.3880897 25.33,30.38 C28.8184732,30.2983531 32.2488972,29.4697317 35.39,27.95 L38.76,32.52 L42.13,20.08 L28.36,18.18 L31.42,22.44 C29.8500778,22.9181289 28.2209096,23.1739487 26.58,23.2 C24.7880461,23.2475447 23.0215969,22.7676825 21.5,21.82 C20.753283,21.3888144 20.2231427,20.6625948 20.04,19.82 C19.9240011,19.1025283 19.9683982,18.368268 20.17,17.67 C25.4929784,13.1006784 32.9147238,11.869231 39.4281581,14.4746047 C45.9415924,17.0799784 50.4666857,23.0901613 51.17,30.07 C45.83,38.16 36.31,42.07 24.17,41.7 C30.5,45.53 42.02,45.83 48.79,41.23 Z" id="Glyph" fill="#FFFFFF"></path>
                                        </g>
                                    </g>
                                </g>
                            </g>
                        </g>
                    </g>
                </g>
            </g>
        </g>
    </g>
</svg>