<?xml version="1.0" encoding="UTF-8"?>
<svg width="66px" height="65px" viewBox="0 0 66 65" version="1.1" xmlns="http://www.w3.org/2000/svg" xmlns:xlink="http://www.w3.org/1999/xlink">
    <!-- Generator: Sketch 41.1 (35376) - http://www.bohemiancoding.com/sketch -->
    <title>Navigator-SQ</title>
    <desc>Created with Sketch.</desc>
    <defs></defs>
    <g id="Page-1" stroke="none" stroke-width="1" fill="none" fill-rule="evenodd">
        <g id="Artboard" transform="translate(-657.000000, -380.000000)">
            <g id="Group-13" transform="translate(350.000000, 277.000000)">
                <g id="Group-11" transform="translate(0.000000, 103.000000)">
                    <g id="Group-8" transform="translate(307.000000, 0.000000)">
                        <g id="Navigator-SQ" transform="translate(0.500000, 0.000000)">
                            <g id="Page-1">
                                <g>
                                    <g id="Navigator-SQ">
                                        <rect id="Rectangle" fill="#F68020" x="0" y="0" width="65" height="65" rx="8"></rect>
                                        <path d="M57.49,29.585 L35.41,7.505 C34.6372107,6.73129735 33.5885351,6.29655886 32.495,6.29655886 C31.4014649,6.29655886 30.3527893,6.73129735 29.58,7.505 L7.51,29.585 C6.73629735,30.3577893 6.30155886,31.4064649 6.30155886,32.5 C6.30155886,33.5935351 6.73629735,34.6422107 7.51,35.415 L29.59,57.495 C30.3627893,58.2687027 31.4114649,58.7034411 32.505,58.7034411 C33.5985351,58.7034411 34.6472107,58.2687027 35.42,57.495 L57.49,35.415 C58.2637027,34.6422107 58.6984411,33.5935351 58.6984411,32.5 C58.6984411,31.4064649 58.2637027,30.3577893 57.49,29.585 Z M36.1,48.225 C35.1453727,49.1800659 33.850357,49.7166532 32.5,49.7166532 C31.149643,49.7166532 29.8546273,49.1800659 28.9,48.225 L23.84,43.175 C23.73,38.965 27.43,34.555 31.62,34.175 L32.48,39.765 L42.06,30.185 L30.06,23.815 L30.93,29.435 C26.11,29.855 21.37,33.515 18.6,37.885 L12.69,31.975 L32.5,12.145 L52.34,31.985 L36.1,48.225 Z" id="Glyph" fill="#FFFFFF"></path>
                                    </g>
                                </g>
                            </g>
                        </g>
                    </g>
                </g>
            </g>
        </g>
    </g>
</svg>