<?xml version="1.0" encoding="UTF-8"?>
<svg width="65px" height="65px" viewBox="0 0 65 65" version="1.1" xmlns="http://www.w3.org/2000/svg" xmlns:xlink="http://www.w3.org/1999/xlink">
    <!-- Generator: Sketch 41.1 (35376) - http://www.bohemiancoding.com/sketch -->
    <title>Operations Dashboard-SQ</title>
    <desc>Created with Sketch.</desc>
    <defs></defs>
    <g id="Page-1" stroke="none" stroke-width="1" fill="none" fill-rule="evenodd">
        <g id="Artboard" transform="translate(-452.000000, -380.000000)">
            <g id="Group-13" transform="translate(350.000000, 277.000000)">
                <g id="Group-11" transform="translate(0.000000, 103.000000)">
                    <g id="Group-6" transform="translate(102.000000, 0.000000)">
                        <g id="Operations-Dashboard-SQ">
                            <g id="Page-1">
                                <g>
                                    <g id="Operations-Dashboard-SQ">
                                        <g id="dashboard">
                                            <rect id="Rectangle" fill="#F7B92E" x="0" y="0" width="65" height="65" rx="8"></rect>
                                            <path d="M42.62,29.0551928 L48.25,29.0551928 L48.25,51.5551928 L42.62,51.5551928 L42.62,29.0551928 Z M33.62,33.6951928 L39.25,33.6951928 L39.25,51.6951928 L33.62,51.6951928 L33.62,33.6951928 Z M51.62,35.8051928 L57.25,35.8051928 L57.25,51.5551928 L51.62,51.5551928 L51.62,35.8051928 Z M16.75,22.3051928 L16.75,38.3051928 C17.94,38.3651928 22.51,38.1251928 23.92,32.4151928 C25.06,27.7951928 29.77,27.6051928 31.38,27.4851928 C34.61,27.2251928 37.68,26.3951928 39.25,22.2751928 L16.75,22.3051928 Z M48.24,20.1651928 C47.9955597,16.2798811 44.7527921,13.2656012 40.86,13.3051928 L7.75,13.3051928 L7.75,42.9751928 C7.7526453,44.3587092 8.30547033,45.684361 9.28657577,46.6598387 C10.2676812,47.6353164 11.5964913,48.1805063 12.98,48.1751928 L27.98,48.1751928 L27.98,42.5451928 L15.62,42.5451928 C14.3812541,42.545205 13.3755055,41.5439264 13.37,40.3051928 L13.37,18.9351928 L40.46,18.9351928 C41.0435076,18.9457055 41.5989285,19.1876348 42.0040276,19.6077376 C42.4091267,20.0278403 42.6307056,20.5916887 42.62,21.1751928 L42.62,23.4351928 L48.25,23.4351928 L48.24,20.1651928 Z" id="Glyph" fill="#FFFFFF"></path>
                                        </g>
                                    </g>
                                </g>
                            </g>
                        </g>
                    </g>
                </g>
            </g>
        </g>
    </g>
</svg>