<?xml version="1.0" encoding="UTF-8"?>
<svg width="65px" height="65px" viewBox="0 0 65 65" version="1.1" xmlns="http://www.w3.org/2000/svg" xmlns:xlink="http://www.w3.org/1999/xlink">
    <!-- Generator: Sketch 41.1 (35376) - http://www.bohemiancoding.com/sketch -->
    <title>Workfroce-SQ</title>
    <desc>Created with Sketch.</desc>
    <defs></defs>
    <g id="Page-1" stroke="none" stroke-width="1" fill="none" fill-rule="evenodd">
        <g id="Artboard" transform="translate(-761.000000, -380.000000)">
            <g id="Group-13" transform="translate(350.000000, 277.000000)">
                <g id="Group-11" transform="translate(0.000000, 103.000000)">
                    <g id="Group-7" transform="translate(410.000000, 0.000000)">
                        <g id="Workfroce-SQ" transform="translate(1.000000, 0.000000)">
                            <g id="Page-1">
                                <g>
                                    <g id="Workfroce-SQ">
                                        <rect id="Rectangle" fill="#DC5329" x="0" y="0" width="65" height="65" rx="8"></rect>
                                        <path d="M52,41.0015123 L52,46.7015123 C51.989021,50.1763484 49.1748361,52.9905333 45.7,53.0015123 L25,53.0015123 L25,33.9015123 C25.0055014,31.197599 27.1960867,29.0070137 29.9,29.0015123 L46,29.0015123 L46,26.0015123 L55,32.0015123 L46,38.0015123 L46,35.0015123 L31,35.0015123 L31,47.0015123 L45.09,47.0015123 C48,47.0015123 50.69,44.5015123 52,41.0015123 Z M52,18.4515123 C52,15.7615123 49.63,14.0015123 46.93,14.0015123 L31,14.0015123 L27.51,11.5015123 C27.0404551,11.1672785 26.4762772,10.992068 25.9,11.0015123 L14.9,11.0015123 C13.6185127,10.9692893 12.3777839,11.4531381 11.4564314,12.3444056 C10.535079,13.2356731 10.0103221,14.4596615 10,15.7415123 L10,39.1215123 C10.0087715,41.6871001 11.9913015,43.8134179 14.55,44.0015123 L22,44.0015123 L22,38.0015123 L16,38.0015123 L16,17.0015123 L25,17.0015123 L27.75,19.5815123 C28.0158537,19.8464941 28.3746669,19.9971957 28.75,20.0015123 L49,20.0015123 L52,23.0015123 L52,18.4515123 Z" id="Glyph" fill="#FFFFFF"></path>
                                    </g>
                                </g>
                            </g>
                        </g>
                    </g>
                </g>
            </g>
        </g>
    </g>
</svg>